<svg xmlns="http://www.w3.org/2000/svg" version="1.1" xmlns:xlink="http://www.w3.org/1999/xlink" xmlns:svgjs="http://svgjs.dev/svgjs" viewBox="0 0 1422 800"><defs><linearGradient x1="50%" y1="0%" x2="50%" y2="100%" id="ccchaos-grad"><stop stop-color="hsl(162, 100%, 58%)" stop-opacity="1" offset="0%"></stop><stop stop-color="hsl(270, 73%, 53%)" stop-opacity="1" offset="100%"></stop></linearGradient></defs><g stroke-width="2" stroke="url(#ccchaos-grad)" fill="none" stroke-linecap="round"><path d="M696.4 65.16C707.4 61.56 718.22 59.34 728.82 58.69 739.43 59.18 749.84 61.4 760.04 65.23 770.26 70.05 780.29 76.1 790.13 83.08 800.03 90.29 809.79 97.83 819.41 105.42 829.15 112.42 838.81 119.07 848.42 125.24 858.2 130.45 867.98 135.15 877.78 139.43 887.81 142.89 897.89 146.19 908.02 149.5 918.38 152.48 928.78 155.82 939.16 159.67 949.7 163.67 960.14 168.44 970.39 174.04 980.6 180.07 990.45 187.01 999.79 194.79 1008.83 203.1 1017.13 212.18 1024.54 221.94 1031.35 232.12 1037.06 242.85 1041.55 253.98 1045.24 265.4 1047.61 277.1 1048.63 288.95 1048.89 300.97 1047.88 313.05 1045.7 325.08 1043.09 337.2 1039.6 349.21 1035.41 361.03 1031.35 372.89 1027.01 384.51 1022.6 395.82 1018.91 407.13 1015.58 417.83 1012.71 427.89 1010.84 437.92 1009.46 447.29 1008.54 456 1008.52 464.68 1008.76 472.73 1009.11 480.17 1009.99 487.67 1010.67 494.68 1011 501.32 1011.4 508.22 1011.15 514.98 1010.14 521.79 1008.84 529.21 1006.6 537.02 1003.39 545.44 999.69 554.86 994.98 565.2 989.3 576.6 983.12 589.17 976.03 602.84 968.14 617.49 959.85 632.93 950.86 648.89 941.3 664.93 931.49 680.62 921.22 695.41 910.59 708.65 899.85 720.01 888.85 728.79 877.67 734.47 866.46 737.34 855.13 736.83 843.73 733.07 832.36 727.16 820.93 719.05 809.5 709.56 798.11 700.4 786.7 691.88 775.3 685.02 763.94 681.32 752.58 680.81 741.24 683.84 729.91 690.86 718.59 700.95 707.3 713.32 696.01 727.26 684.99 740.71 674.27 752.36 663.53 761.84 653.06 767.55 642.88 769 632.67 766.63 622.74 760 613.1 749.72 603.41 736.81 593.99 721.8 584.85 705.71 575.65 689.62 566.7 674.16 558.03 660.05 549.26 647.95 540.75 637.95 532.48 630.14 524.1 624.77 515.95 621.27 508.05 619.23 500.01 618.82 492.2 619.01 484.64 619.32 476.95 620.05 469.51 620.13 462.35 619.23 455.08 617.89 448.11 615.2 441.47 611.12 434.78 606.25 428.45 599.99 422.54 592.48 416.64 584.26 411.19 574.98 406.24 564.87 401.36 554.28 397.02 543.1 393.25 531.5 389.6 519.68 386.54 507.62 384.12 495.47 381.84 483.25 380.19 471.04 379.21 458.92 378.35 446.8 378.15 434.8 378.62 422.97 379.19 411.15 380.4 399.75 382.19 388.75 384.02 377.72 386.4 367.04 389.28 356.67 392.14 346.19 395.47 335.94 399.23 325.85 402.9 315.56 406.97 305.34 411.4 295.12 415.7 284.6 420.34 274 425.3 263.27 430.11 252.2 435.24 240.96 440.68 229.58 445.98 217.95 451.61 206.25 457.55 194.58 463.4 182.9 469.59 171.48 476.12 160.48 482.61 149.87 489.47 139.99 496.68 131.04 503.9 122.86 511.49 115.84 519.45 110.1 527.44 105.26 535.8 101.69 544.51 99.34 553.27 97.57 562.36 96.68 571.76 96.47 581.21 96.11 590.96 95.9 600.95 95.58 610.99 94.38 621.26 92.68 631.72 90.4 642.21 86.98 652.87 83.03 663.66 78.75 674.46 73.86 685.39 69.21 696.39 65.16" stroke-dasharray="2 4" transform="rotate(0, 711, 400)" opacity="1.00"></path><path d="M695.67 75.96C706.28 72.33 716.75 70.03 727.05 69.24 737.35 69.55 747.49 71.53 757.46 75.1 767.46 79.66 777.31 85.46 787.01 92.24 796.78 99.32 806.43 106.82 815.99 114.46 825.66 121.63 835.29 128.53 844.87 135.02 854.62 140.62 864.37 145.73 874.14 150.39 884.1 154.21 894.1 157.78 904.11 161.25 914.31 164.26 924.51 167.49 934.63 171.07 944.85 174.65 954.92 178.85 964.74 183.74 974.47 188.94 983.79 194.95 992.56 201.75 1000.99 208.97 1008.69 216.97 1015.49 225.64 1021.71 234.71 1026.88 244.36 1030.87 254.47 1034.13 264.87 1036.16 275.62 1036.93 286.59 1037.02 297.75 1035.96 309.02 1033.8 320.32 1031.29 331.71 1027.96 343.05 1023.99 354.25 1020.16 365.48 1016.06 376.52 1011.86 387.3 1008.34 398.08 1005.12 408.31 1002.28 417.97 1000.37 427.61 998.89 436.68 997.82 445.2 997.58 453.73 997.58 461.76 997.69 469.35 998.33 477.05 998.81 484.45 998.99 491.66 999.29 499.21 999.03 506.8 998.1 514.6 996.95 523.06 994.96 532.01 992.09 541.63 988.81 552.18 984.59 563.59 979.47 575.94 973.89 589.23 967.45 603.36 960.23 618.18 952.63 633.41 944.33 648.79 935.45 663.88 926.31 678.29 916.68 691.51 906.66 702.96 896.51 712.46 886.06 719.36 875.39 723.29 864.67 724.66 853.79 722.98 842.8 718.45 831.83 712.21 820.77 704.19 809.69 695.17 798.63 686.75 787.54 679.13 776.46 673.22 765.4 670.36 754.34 670.47 743.3 673.85 732.27 680.86 721.25 690.67 710.26 702.52 699.26 715.82 688.55 728.68 678.11 739.93 667.66 749.27 657.48 755.19 647.57 757.23 637.64 755.76 627.97 750.3 618.58 741.3 609.14 729.7 599.95 715.87 591.03 700.71 582.04 685.2 573.3 669.93 564.81 655.58 556.23 642.82 547.87 631.81 539.76 622.72 531.54 615.86 523.53 610.8 515.76 607.26 507.86 605.43 500.19 604.44 492.75 603.86 485.2 603.99 477.89 603.82 470.85 603.03 463.72 602.09 456.89 600.12 450.38 596.98 443.83 593.29 437.65 588.34 431.87 582.22 426.11 575.48 420.79 567.69 415.96 558.99 411.21 549.85 406.99 540 403.32 529.59 399.78 518.95 396.82 507.92 394.48 496.65 392.28 485.29 390.71 473.79 389.78 462.25 388.99 450.69 388.85 439.13 389.36 427.62 389.97 416.1 391.2 404.88 393 393.96 394.84 383.01 397.21 372.3 400.08 361.81 402.91 351.22 406.21 340.76 409.91 330.39 413.53 319.84 417.52 309.3 421.87 298.71 426.09 287.89 430.63 276.96 435.48 265.91 440.19 254.62 445.19 243.21 450.49 231.73 455.65 220.13 461.12 208.56 466.88 197.14 472.54 185.86 478.53 174.95 484.83 164.59 491.08 154.72 497.67 145.66 504.59 137.58 511.5 130.29 518.77 124.15 526.38 119.26 534.01 115.18 541.99 112.27 550.3 110.46 558.64 109.09 567.31 108.46 576.28 108.38 585.29 108.05 594.58 107.76 604.13 107.3 613.71 105.92 623.52 104.03 633.54 101.56 643.57 98 653.79 93.96 664.16 89.6 674.53 84.7 685.04 80.03 695.66 75.96" stroke-dasharray="1 10" transform="rotate(5.275862068965517, 711, 400)" opacity="0.97"></path><path d="M695.51 86.76C705.76 83.11 715.89 80.74 725.89 79.81 735.89 79.94 745.77 81.69 755.52 84.98 765.3 89.26 774.97 94.79 784.53 101.32 794.15 108.24 803.69 115.65 813.17 123.29 822.74 130.57 832.29 137.68 841.82 144.46 851.48 150.43 861.16 155.94 870.84 161.01 880.68 165.23 890.53 169.15 900.37 172.87 910.34 176.04 920.26 179.3 930.07 182.78 939.92 186.11 949.56 189.91 958.9 194.26 968.12 198.79 976.88 204.02 985.07 209.95 992.91 216.21 1000 223.19 1006.22 230.83 1011.88 238.83 1016.52 247.41 1020.06 256.49 1022.92 265.85 1024.64 275.61 1025.19 285.65 1025.14 295.88 1024.03 306.29 1021.92 316.8 1019.51 327.4 1016.35 338.02 1012.6 348.57 1008.99 359.15 1005.11 369.62 1001.13 379.89 997.77 390.17 994.65 399.99 991.86 409.34 989.92 418.69 988.35 427.6 987.14 436.07 986.7 444.59 986.48 452.76 986.37 460.64 986.77 468.68 987.04 476.6 987.07 484.48 987.25 492.74 986.95 501.2 986.06 509.98 985.02 519.39 983.23 529.36 980.65 540 977.73 551.42 973.95 563.62 969.33 576.59 964.32 590.22 958.48 604.44 951.89 619.02 944.94 633.69 937.32 648.18 929.1 662.05 920.62 674.99 911.64 686.52 902.25 696.14 892.71 703.81 882.83 708.95 872.7 711.29 862.51 711.35 852.12 708.71 841.59 703.61 831.05 697.21 820.41 689.41 809.71 680.95 799.02 673.31 788.29 666.6 777.55 661.61 766.82 659.52 756.08 660.21 745.35 663.88 734.64 670.87 723.93 680.38 713.24 691.72 702.55 704.4 692.13 716.68 681.98 727.51 671.81 736.68 661.9 742.76 652.26 745.31 642.59 744.67 633.17 740.29 624.01 732.54 614.81 722.23 605.84 709.62 597.12 695.49 588.34 680.73 579.78 665.85 571.46 651.5 563.06 638.33 554.87 626.56 546.9 616.42 538.83 608.24 530.96 601.74 523.32 596.75 515.57 593.46 508.02 591.16 500.72 589.51 493.3 588.76 486.13 588.02 479.23 586.98 472.25 586.07 465.56 584.41 459.19 581.86 452.8 578.97 446.76 575.01 441.12 569.99 435.51 564.5 430.34 557.99 425.64 550.56 421.03 542.74 416.92 534.14 413.37 524.9 409.94 515.43 407.09 505.45 404.84 495.1 402.73 484.64 401.23 473.91 400.37 463 399.64 452.07 399.54 440.99 400.09 429.83 400.74 418.67 401.99 407.69 403.79 396.88 405.64 386.04 408 375.34 410.84 364.76 413.65 354.1 416.9 343.49 420.55 332.9 424.11 322.17 428.04 311.4 432.3 300.56 436.44 289.55 440.9 278.44 445.64 267.25 450.25 255.91 455.14 244.52 460.3 233.14 465.33 221.76 470.65 210.52 476.25 199.54 481.74 188.82 487.53 178.58 493.62 168.99 499.64 159.95 505.99 151.79 512.64 144.63 519.27 138.25 526.24 132.98 533.52 128.9 540.81 125.52 548.43 123.21 556.37 121.87 564.32 120.83 572.59 120.4 581.15 120.38 589.73 120.02 598.6 119.61 607.72 118.97 616.86 117.41 626.24 115.32 635.83 112.66 645.43 108.97 655.22 104.83 665.18 100.42 675.14 95.51 685.26 90.84 695.51 86.76" stroke-dasharray="5 1" transform="rotate(10.551724137931034, 711, 400)" opacity="0.93"></path><path d="M695.93 97.56C705.82 93.9 715.62 91.46 725.33 90.41 735.05 90.36 744.67 91.87 754.2 94.88 763.76 98.86 773.24 104.1 782.64 110.36 792.1 117.06 801.51 124.33 810.87 131.92 820.32 139.26 829.76 146.53 839.18 153.54 848.72 159.85 858.26 165.75 867.79 171.22 877.45 175.88 887.09 180.19 896.69 184.25 906.37 187.7 915.97 191.11 925.4 194.63 934.83 197.87 944.01 201.44 952.85 205.44 961.52 209.47 969.72 214.09 977.32 219.31 984.56 224.75 991.07 230.85 996.72 237.58 1001.84 244.58 1006 252.16 1009.11 260.26 1011.61 268.6 1013.05 277.38 1013.41 286.49 1013.24 295.78 1012.1 305.31 1010.05 315.02 1007.75 324.81 1004.76 334.7 1001.22 344.6 997.82 354.54 994.17 364.44 990.4 374.25 987.19 384.06 984.18 393.54 981.45 402.67 979.49 411.8 977.84 420.63 976.5 429.16 975.89 437.77 975.46 446.17 975.14 454.44 975.31 462.9 975.38 471.38 975.24 479.96 975.3 488.92 974.93 498.18 974.05 507.84 973.08 518.06 971.45 528.84 969.11 540.23 966.49 552.25 963.09 564.89 958.92 578.11 954.41 591.72 949.13 605.65 943.13 619.65 936.8 633.45 929.81 646.78 922.24 659.22 914.42 670.56 906.08 680.35 897.32 688.16 888.39 694.08 879.11 697.59 869.55 698.52 859.9 697.48 850.03 694.08 839.99 688.61 829.92 682.2 819.72 674.75 809.44 666.92 799.16 660.08 788.82 654.27 778.44 650.17 768.08 648.81 757.68 650.01 747.29 653.94 736.91 660.88 726.51 670.08 716.14 680.92 705.76 692.98 695.64 704.69 685.77 715.1 675.89 724.07 666.25 730.26 656.87 733.25 647.45 733.36 638.27 729.99 629.34 723.43 620.36 714.41 611.6 703.04 603.08 690.01 594.49 676.12 586.12 661.81 577.96 647.69 569.73 634.36 561.69 622.08 553.87 611.13 545.95 601.85 538.23 594.07 530.72 587.73 523.11 583 515.71 579.36 508.53 576.51 501.27 574.69 494.24 573.13 487.48 571.55 480.66 570.32 474.12 568.63 467.9 566.29 461.67 563.83 455.79 560.51 450.3 556.28 444.85 551.74 439.83 546.25 435.27 539.89 430.8 533.21 426.83 525.74 423.4 517.57 420.1 509.18 417.35 500.21 415.19 490.76 413.17 481.21 411.76 471.26 410.96 461.01 410.3 450.73 410.25 440.19 410.82 429.43 411.5 418.68 412.77 407.97 414.57 397.33 416.41 386.67 418.76 376.04 421.57 365.45 424.35 354.8 427.56 344.13 431.14 333.43 434.66 322.63 438.52 311.77 442.7 300.83 446.77 289.8 451.13 278.68 455.78 267.53 460.29 256.33 465.07 245.15 470.11 234.08 475.02 223.11 480.2 212.38 485.64 202.03 490.98 192.02 496.59 182.58 502.49 173.86 508.3 165.73 514.42 158.5 520.83 152.28 527.19 146.79 533.88 142.37 540.86 139.03 547.83 136.3 555.12 134.51 562.7 133.54 570.29 132.76 578.18 132.45 586.36 132.44 594.54 132 603 131.44 611.71 130.59 620.44 128.82 629.4 126.53 638.58 123.7 647.77 119.88 657.16 115.66 666.72 111.21 676.29 106.29 686.03 101.64 695.93 97.56" stroke-dasharray="11 1" transform="rotate(15.827586206896552, 711, 400)" opacity="0.90"></path><path d="M696.9 108.37C706.45 104.7 715.94 102.2 725.36 101.03 734.79 100.81 744.16 102.09 753.47 104.8 762.8 108.48 772.08 113.4 781.3 119.35 790.58 125.81 799.83 132.89 809.04 140.36 818.33 147.71 827.62 155.06 836.88 162.26 846.24 168.86 855.59 175.11 864.92 180.97 874.33 186.07 883.71 190.81 893.01 195.25 902.35 199.06 911.56 202.74 920.58 206.42 929.55 209.73 938.23 213.25 946.54 217.06 954.66 220.79 962.28 224.98 969.29 229.67 975.96 234.47 981.89 239.84 987 245.79 991.62 251.93 995.32 258.63 998.04 265.84 1000.21 273.24 1001.4 281.09 1001.6 289.33 1001.34 297.71 1000.19 306.4 998.2 315.33 996.01 324.33 993.19 333.51 989.86 342.79 986.67 352.1 983.23 361.47 979.66 370.86 976.61 380.26 973.71 389.44 971.04 398.41 969.07 407.39 967.37 416.2 965.92 424.86 965.14 433.61 964.52 442.29 964 450.97 963.95 459.86 963.83 468.87 963.53 478.09 963.44 487.66 962.98 497.59 962.09 507.93 961.16 518.74 959.64 530.07 957.49 541.91 955.13 554.2 952.06 566.94 948.28 580.04 944.22 593.29 939.44 606.6 933.98 619.7 928.23 632.37 921.85 644.33 914.89 655.21 907.69 664.89 899.99 672.93 891.84 678.99 883.53 683.3 874.85 685.35 865.87 685.07 856.79 683.13 847.45 679.18 837.93 673.52 828.36 667.25 818.64 660.25 808.8 653.12 798.96 647.1 789.03 642.17 779.04 638.9 769.06 638.21 759.04 639.89 748.99 644.03 738.96 650.89 728.9 659.77 718.85 670.11 708.79 681.58 698.97 692.72 689.39 702.7 679.79 711.44 670.42 717.7 661.29 721.06 652.13 721.83 643.19 719.41 634.47 713.98 625.71 706.19 617.16 696.07 608.83 684.2 600.43 671.3 592.24 657.71 584.25 644.01 576.18 630.76 568.3 618.23 560.63 606.73 552.87 596.58 545.29 587.74 537.92 580.19 530.47 574.13 523.22 569.17 516.18 565.08 509.08 562.08 502.21 559.53 495.6 557.18 488.94 555.35 482.57 553.3 476.51 550.86 470.45 548.49 464.74 545.46 459.41 541.71 454.13 537.78 449.27 533.04 444.86 527.5 440.55 521.73 436.72 515.19 433.41 507.94 430.24 500.52 427.6 492.46 425.54 483.85 423.63 475.14 422.29 465.96 421.55 456.37 420.96 446.74 420.95 436.76 421.56 426.45 422.26 416.14 423.54 405.77 425.33 395.36 427.17 384.95 429.5 374.48 432.27 363.98 435.02 353.44 438.17 342.83 441.7 332.16 445.15 321.44 448.95 310.64 453.05 299.79 457.04 288.9 461.32 277.97 465.87 267.06 470.29 256.2 474.97 245.43 479.89 234.85 484.69 224.48 489.74 214.43 495.04 204.84 500.23 195.67 505.68 187.12 511.39 179.34 517.02 172.16 522.93 165.88 529.11 160.58 535.23 155.95 541.66 152.31 548.36 149.65 555.04 147.48 562.02 146.12 569.28 145.46 576.53 144.85 584.07 144.59 591.88 144.53 599.69 143.96 607.77 143.21 616.1 142.14 624.43 140.16 633 137.66 641.79 134.66 650.58 130.73 659.59 126.44 668.78 121.96 677.97 117.06 687.35 112.43 696.9 108.37" stroke-dasharray="8 8" transform="rotate(21.103448275862068, 711, 400)" opacity="0.87"></path><path d="M698.4 119.17C707.61 115.51 716.8 112.97 725.93 111.68 735.08 111.29 744.19 112.33 753.25 114.76 762.34 118.12 771.41 122.7 780.43 128.33 789.5 134.49 798.56 141.34 807.58 148.64 816.68 155.92 825.76 163.3 834.82 170.62 843.95 177.45 853.06 184 862.12 190.22 871.25 195.74 880.31 200.92 889.25 205.78 898.2 210 906.99 214.04 915.55 217.98 924.02 221.5 932.19 225.11 939.95 228.9 947.5 232.5 954.55 236.45 960.99 240.79 967.08 245.14 972.47 249.97 977.07 255.31 981.21 260.75 984.49 266.71 986.85 273.16 988.73 279.74 989.7 286.79 989.76 294.24 989.42 301.79 988.28 309.7 986.37 317.91 984.29 326.18 981.64 334.69 978.51 343.4 975.53 352.12 972.3 361.01 968.93 370.03 966.03 379.05 963.25 387.99 960.64 396.83 958.67 405.7 956.91 414.53 955.37 423.33 954.45 432.22 953.66 441.17 952.95 450.22 952.7 459.47 952.38 468.93 951.92 478.65 951.68 488.68 951.13 499.07 950.19 509.87 949.27 521.01 947.83 532.58 945.83 544.55 943.67 556.77 940.88 569.27 937.44 581.9 933.77 594.48 929.44 606.87 924.47 618.83 919.25 630.19 913.43 640.64 907.05 649.88 900.46 657.89 893.36 664.24 885.81 668.68 878.12 671.52 870.03 672.31 861.62 671.03 853.12 668.4 844.33 664.09 835.34 658.41 826.29 652.4 817.06 645.93 807.69 639.54 798.31 634.35 788.82 630.27 779.24 627.8 769.67 627.74 760.04 629.83 750.36 634.14 740.69 640.9 730.98 649.46 721.27 659.31 711.54 670.19 702.03 680.76 692.74 690.31 683.44 698.8 674.34 705.07 665.46 708.75 656.55 710.11 647.85 708.54 639.35 704.17 630.81 697.57 622.47 688.69 614.33 678.01 606.13 666.17 598.11 653.45 590.29 640.35 582.4 627.41 574.68 614.87 567.16 603.06 559.57 592.3 552.15 582.62 544.93 574.07 537.64 566.83 530.54 560.63 523.67 555.34 516.74 551.13 510.03 547.5 503.59 544.22 497.11 541.58 490.91 538.94 485.03 536.12 479.15 533.52 473.62 530.48 468.46 526.9 463.36 523.28 458.67 518.99 454.42 514.01 450.27 508.89 446.59 503.06 443.42 496.55 440.38 489.91 437.86 482.63 435.9 474.76 434.08 466.82 432.83 458.34 432.16 449.38 431.62 440.4 431.66 430.98 432.29 421.15 433.02 411.32 434.3 401.34 436.08 391.25 437.91 381.16 440.21 370.95 442.93 360.65 445.65 350.34 448.75 339.94 452.21 329.45 455.61 318.96 459.33 308.4 463.35 297.81 467.27 287.25 471.47 276.71 475.92 266.24 480.25 255.89 484.83 245.71 489.64 235.8 494.33 226.17 499.27 216.93 504.43 208.23 509.48 199.97 514.78 192.38 520.33 185.58 525.78 179.35 531.5 174 537.47 169.59 543.37 165.75 549.56 162.81 556 160.74 562.42 159.04 569.11 158.02 576.06 157.57 583 157.05 590.22 156.79 597.69 156.61 605.15 155.87 612.88 154.91 620.84 153.6 628.81 151.4 637.01 148.71 645.43 145.54 653.85 141.52 662.49 137.17 671.32 132.67 680.16 127.8 689.19 123.21 698.4 119.17" stroke-dasharray="1 10" transform="rotate(26.379310344827587, 711, 400)" opacity="0.84"></path><path d="M700.37 129.97C709.25 126.33 718.13 123.75 726.98 122.35 735.84 121.81 744.68 122.62 753.49 124.75 762.33 127.79 771.15 132.02 779.95 137.29 788.79 143.13 797.61 149.69 806.41 156.78 815.27 163.93 824.11 171.27 832.91 178.63 841.77 185.62 850.59 192.41 859.33 198.93 868.12 204.84 876.8 210.43 885.34 215.72 893.86 220.38 902.19 224.83 910.26 229.12 918.22 232.95 925.85 236.77 933.05 240.68 940.04 244.33 946.52 248.21 952.4 252.38 957.95 256.47 962.82 260.95 966.93 265.85 970.63 270.78 973.52 276.18 975.56 282.02 977.18 287.94 977.96 294.31 977.9 301.09 977.51 307.94 976.38 315.17 974.55 322.75 972.6 330.36 970.11 338.29 967.18 346.48 964.4 354.69 961.38 363.14 958.2 371.83 955.45 380.51 952.78 389.23 950.24 397.97 948.28 406.74 946.49 415.57 944.87 424.49 943.82 433.48 942.88 442.63 942 451.97 941.56 461.46 941.05 471.22 940.43 481.27 940.04 491.54 939.38 502.17 938.39 513.13 937.44 524.32 936.04 535.84 934.15 547.6 932.16 559.44 929.59 571.38 926.45 583.25 923.12 594.88 919.18 606.14 914.66 616.76 909.92 626.67 904.61 635.56 898.77 643.15 892.74 649.54 886.21 654.31 879.25 657.28 872.14 658.84 864.64 658.57 856.8 656.51 848.87 653.39 840.64 648.9 832.18 643.35 823.66 637.72 814.94 631.86 806.06 626.23 797.15 621.85 788.11 618.6 778.97 616.87 769.83 617.37 760.6 619.83 751.31 624.27 742.02 630.92 732.68 639.14 723.3 648.51 713.93 658.81 704.73 668.83 695.74 677.94 686.73 686.16 677.91 692.4 669.29 696.32 660.64 698.2 652.18 697.4 643.91 694.01 635.6 688.55 627.47 680.88 619.52 671.39 611.52 660.68 603.69 648.92 596.04 636.58 588.34 624.14 580.8 611.82 573.44 599.96 566.02 588.85 558.77 578.58 551.72 569.25 544.6 561.03 537.68 553.76 530.98 547.36 524.23 541.98 517.71 537.24 511.44 532.97 505.16 529.4 499.15 525.99 493.45 522.58 487.77 519.51 482.43 516.2 477.45 512.51 472.54 508.91 468.02 504.79 463.94 500.11 459.96 495.37 456.44 490.02 453.41 484.06 450.51 478 448.12 471.34 446.26 464.1 444.55 456.8 443.38 448.94 442.77 440.58 442.29 432.19 442.37 423.31 443.02 413.99 443.77 404.66 445.05 395.13 446.82 385.42 448.63 375.73 450.89 365.88 453.57 355.91 456.24 345.96 459.29 335.9 462.68 325.76 466.01 315.66 469.66 305.5 473.6 295.36 477.44 285.3 481.55 275.3 485.91 265.45 490.15 255.78 494.63 246.34 499.34 237.25 503.93 228.47 508.74 220.15 513.78 212.4 518.71 205.1 523.87 198.49 529.25 192.66 534.55 187.36 540.09 182.89 545.86 179.29 551.57 176.16 557.54 173.83 563.75 172.26 569.91 170.93 576.34 170.16 583.02 169.82 589.67 169.33 596.58 168.99 603.74 168.65 610.88 167.71 618.27 166.52 625.9 164.96 633.52 162.54 641.38 159.66 649.45 156.34 657.52 152.23 665.81 147.85 674.3 143.35 682.79 138.52 691.48 133.98 700.37 129.97" stroke-dasharray="1 10" transform="rotate(31.655172413793103, 711, 400)" opacity="0.80"></path><path d="M702.73 140.78C711.29 137.16 719.86 134.55 728.41 133.06 736.98 132.36 745.54 132.95 754.09 134.79 762.65 137.5 771.21 141.37 779.75 146.26 788.33 151.75 796.89 157.99 805.42 164.8 814 171.76 822.55 178.98 831.05 186.31 839.59 193.38 848.07 200.34 856.45 207.1 864.84 213.35 873.12 219.31 881.22 225 889.28 230.11 897.12 234.99 904.67 239.68 912.1 243.88 919.18 248.02 925.83 252.17 932.26 256 938.19 259.96 943.53 264.13 950.75 270.29 961.16 284.2 964.18 292.12 965.56 297.54 966.18 303.38 966.03 309.64 965.6 315.92 964.5 322.6 962.76 329.65 960.93 336.71 958.61 344.13 955.87 351.88 953.28 359.64 950.45 367.71 947.47 376.09 944.86 384.48 942.3 392.99 939.85 401.62 937.9 410.27 936.09 419.07 934.41 428.03 933.24 437.06 932.17 446.31 931.14 455.77 930.52 465.37 929.84 475.24 929.06 485.39 928.52 495.69 927.74 506.28 926.68 517.13 925.7 528.09 924.31 539.24 922.5 550.49 920.62 561.68 918.24 572.79 915.34 583.65 912.3 594.13 908.7 604.08 904.57 613.26 900.26 621.67 895.42 628.98 890.08 634.98 884.56 639.85 878.58 643.18 872.17 644.87 865.62 645.35 858.68 644.24 851.4 641.6 844.03 638.19 836.35 633.69 828.42 628.4 820.43 623.24 812.23 618.03 803.84 613.19 795.42 609.61 786.85 607.14 778.15 606.1 769.45 607.11 760.64 609.88 751.75 614.42 742.86 620.93 733.9 628.82 724.88 637.7 715.86 647.44 707 656.92 698.32 665.59 689.62 673.51 681.09 679.68 672.73 683.79 664.36 686.1 656.14 685.99 648.1 683.51 640.03 679.11 632.12 672.61 624.37 664.31 616.59 654.76 608.96 644.05 601.5 632.59 593.99 620.82 586.63 608.93 579.46 597.25 572.23 586.05 565.16 575.45 558.29 565.58 551.37 556.61 544.64 548.46 538.12 541.1 531.57 534.66 525.24 528.88 519.17 523.62 513.1 519.06 507.29 514.79 501.79 510.66 496.32 506.95 491.17 503.15 486.39 499.15 481.68 495.32 477.35 491.13 473.45 486.52 469.64 481.93 466.28 476.83 463.4 471.2 460.64 465.54 458.38 459.33 456.63 452.58 455.02 445.78 453.93 438.46 453.39 430.62 452.97 422.76 453.09 414.42 453.75 405.6 454.52 396.79 455.79 387.73 457.54 378.49 459.33 369.27 461.55 359.87 464.17 350.35 466.79 340.87 469.78 331.28 473.09 321.63 476.36 312.06 479.93 302.47 483.78 292.93 487.55 283.52 491.57 274.23 495.83 265.14 499.99 256.26 504.37 247.69 508.98 239.5 513.46 231.65 518.17 224.29 523.08 217.54 527.89 211.21 532.92 205.56 538.16 200.66 543.3 196.23 548.68 192.56 554.28 189.68 559.8 187.17 565.56 185.34 571.55 184.16 577.49 183.1 583.68 182.48 590.1 182.18 596.49 181.64 603.12 181.16 609.98 180.62 616.83 179.46 623.91 178.01 631.22 176.21 638.52 173.58 646.05 170.52 653.79 167.06 661.53 162.88 669.48 158.47 677.64 153.99 685.8 149.22 694.16 144.74 702.73 140.78" stroke-dasharray="3 0" transform="rotate(36.93103448275862, 711, 400)" opacity="0.77"></path><path d="M705.39 151.58C713.64 148 721.9 145.37 730.15 143.79 738.41 142.95 746.68 143.32 754.94 144.88 763.21 147.26 771.48 150.76 779.74 155.26 788.01 160.36 796.28 166.24 804.51 172.73 812.77 179.43 820.99 186.48 829.14 193.7 837.32 200.77 845.42 207.81 853.4 214.73 861.37 221.23 869.2 227.52 876.83 233.56 884.4 239.08 891.73 244.38 898.75 249.48 905.65 254.11 912.18 258.63 918.28 263.09 924.17 267.21 929.56 271.38 934.38 275.68 940.88 281.91 950.11 295.48 952.72 303.01 953.89 308.11 954.37 313.6 954.15 319.47 953.7 325.33 952.64 331.58 951 338.22 949.29 344.85 947.13 351.86 944.58 359.23 942.18 366.61 939.54 374.35 936.73 382.46 934.28 390.57 931.83 398.87 929.45 407.34 927.53 415.84 925.71 424.55 923.99 433.46 922.73 442.43 921.53 451.63 920.37 461.07 919.59 470.59 918.75 480.37 917.82 490.38 917.13 500.47 916.24 510.77 915.1 521.23 914.05 531.7 912.67 542.22 910.9 552.7 909.11 563 906.87 573.06 904.17 582.73 901.37 591.93 898.06 600.48 894.28 608.18 890.34 615.08 885.92 620.88 881.02 625.4 875.99 628.89 870.5 630.97 864.6 631.57 858.58 631.19 852.18 629.44 845.44 626.44 838.61 622.91 831.47 618.54 824.06 613.63 816.6 609.02 808.91 604.51 801.01 600.45 793.09 597.64 784.99 595.9 776.75 595.5 768.5 596.96 760.12 600 751.64 604.59 743.16 610.94 734.59 618.49 725.94 626.9 717.3 636.08 708.78 645.03 700.42 653.25 692.04 660.86 683.81 666.92 675.73 671.16 667.63 673.84 659.68 674.34 651.88 672.67 644.06 669.27 636.38 663.87 628.85 656.74 621.29 648.36 613.88 638.75 606.62 628.26 599.32 617.3 592.18 606.03 585.19 594.73 578.17 583.69 571.31 573.01 564.63 562.86 557.92 553.39 551.4 544.59 545.08 536.47 538.75 529.14 532.64 522.43 526.78 516.25 520.92 510.75 515.34 505.6 510.05 500.69 504.8 496.24 499.87 491.83 495.29 487.36 490.78 483.12 486.65 478.67 482.93 473.93 479.31 469.28 476.12 464.24 473.39 458.77 470.78 453.31 468.64 447.39 467.01 440.99 465.5 434.57 464.5 427.66 464.01 420.28 463.65 412.89 463.81 405.03 464.49 396.72 465.26 388.41 466.53 379.87 468.24 371.15 470 362.45 472.18 353.58 474.75 344.61 477.31 335.69 480.23 326.68 483.46 317.67 486.66 308.73 490.15 299.83 493.9 291.03 497.58 282.38 501.52 273.9 505.68 265.68 509.75 257.69 514.03 250.04 518.53 242.82 522.92 235.93 527.52 229.55 532.31 223.77 537 218.38 541.9 213.64 547 209.6 554.62 204.47 570.8 197.99 579.37 196.36 585.11 195.47 591.07 194.91 597.25 194.57 603.39 193.92 609.77 193.26 616.36 192.48 622.93 191.08 629.72 189.38 636.74 187.32 643.73 184.49 650.95 181.27 658.38 177.69 665.8 173.46 673.43 169.05 681.27 164.59 689.11 159.89 697.15 155.48 705.39 151.58" stroke-dasharray="7 3" transform="rotate(42.206896551724135, 711, 400)" opacity="0.74"></path><path d="M708.27 162.38C716.19 158.85 724.13 156.21 732.07 154.56 740.02 153.59 747.98 153.75 755.93 155.03 763.89 157.08 771.85 160.2 779.78 164.3 787.74 169 795.67 174.48 803.56 180.6 811.46 186.99 819.32 193.79 827.09 200.83 834.87 207.81 842.55 214.85 850.09 221.84 857.61 228.51 864.97 235.04 872.1 241.36 879.17 247.25 885.98 252.94 892.48 258.43 898.84 263.48 904.83 268.4 910.39 273.23 915.75 277.7 920.63 282.17 924.97 286.7 930.79 293.19 938.94 306.85 941.18 314.24 942.36 321.81 941.3 338.63 939.26 347.94 937.67 354.24 935.67 360.93 933.31 368 931.08 375.06 928.63 382.51 926 390.36 923.69 398.2 921.36 406.27 919.06 414.55 917.18 422.85 915.35 431.38 913.6 440.12 912.26 448.9 910.97 457.92 909.69 467.14 908.76 476.41 907.78 485.89 906.71 495.53 905.88 505.19 904.87 514.97 903.64 524.8 902.53 534.54 901.12 544.22 899.38 553.72 897.64 562.95 895.51 571.83 892.97 580.19 890.36 588.05 887.31 595.18 883.81 601.41 878.18 609.08 864.54 617.26 856.6 617.51 851.07 616.47 845.17 614.3 838.94 611.12 832.63 607.63 826 603.54 819.11 599.1 812.16 595.09 804.97 591.29 797.57 588 790.14 585.94 782.52 584.88 774.73 585.05 766.94 586.91 759 590.16 750.94 594.78 742.88 600.94 734.71 608.15 726.45 616.1 718.19 624.74 710.03 633.16 702 640.94 693.96 648.21 686.04 654.14 678.25 658.45 670.45 661.42 662.78 662.44 655.24 661.51 647.68 659.01 640.25 654.66 632.96 648.65 625.64 641.42 618.46 632.94 611.42 623.49 604.35 613.47 597.43 602.96 590.66 592.24 583.86 581.57 577.23 571.05 570.76 560.86 564.28 551.15 557.98 541.94 551.89 533.29 545.79 525.27 539.91 517.81 534.28 510.85 528.66 504.5 523.3 498.53 518.24 492.86 513.22 487.65 508.51 482.57 504.15 477.55 499.86 472.8 495.94 467.95 492.4 462.95 488.98 458.07 485.96 452.93 483.38 447.47 480.92 442.06 478.92 436.28 477.39 430.11 475.99 423.94 475.07 417.36 474.65 410.36 474.34 403.36 474.53 395.95 475.22 388.13 476 380.31 477.25 372.3 478.93 364.13 480.66 355.98 482.79 347.71 485.29 339.37 487.79 331.08 490.63 322.75 493.78 314.45 496.9 306.24 500.3 298.12 503.96 290.14 507.55 282.33 511.39 274.73 515.45 267.43 519.42 260.36 523.61 253.66 528 247.41 532.28 241.46 536.77 236.03 541.45 231.17 546.03 226.65 550.8 222.74 555.77 219.46 563.18 215.3 578.88 210.12 587.17 208.8 592.71 207.99 598.47 207.4 604.42 206.95 610.34 206.13 616.47 205.24 622.81 204.2 629.12 202.54 635.64 200.59 642.37 198.29 649.08 195.27 656.01 191.9 663.14 188.23 670.25 183.97 677.58 179.57 685.1 175.15 692.62 170.54 700.35 166.22 708.27 162.38" stroke-dasharray="9 10" transform="rotate(47.48275862068966, 711, 400)" opacity="0.71"></path><path d="M711.25 173.18C718.85 169.71 726.46 167.07 734.08 165.36 741.7 164.27 749.33 164.23 756.95 165.24 764.58 166.97 772.2 169.72 779.79 173.41 787.39 177.68 794.96 182.74 802.47 188.45 809.99 194.48 817.45 200.96 824.81 207.74 832.16 214.56 839.39 221.49 846.48 228.46 853.52 235.21 860.38 241.88 867.02 248.41 873.57 254.58 879.86 260.59 885.82 266.42 891.66 271.87 897.12 277.18 902.17 282.38 907.02 287.23 911.42 292.05 915.3 296.87 920.49 303.75 927.67 317.84 929.58 325.26 930.56 332.77 929.46 349.18 927.54 358.18 926.08 364.27 924.23 370.71 922.05 377.53 920 384.33 917.72 391.52 915.27 399.1 913.09 406.69 910.88 414.5 908.68 422.52 906.83 430.56 905.02 438.81 903.25 447.27 901.85 455.74 900.47 464.42 899.1 473.25 898.04 482.1 896.93 491.09 895.74 500.16 894.77 509.19 893.65 518.25 892.34 527.24 891.15 536.09 889.7 544.76 887.97 553.14 886.26 561.21 884.2 568.82 881.79 575.85 877.91 585.23 868.05 598.69 862.05 602.29 855.52 603.68 840.43 600.17 831.96 595.79 826.13 592.48 820 588.77 813.6 584.87 807.15 581.49 800.45 578.41 793.53 575.87 786.58 574.5 779.43 574.07 772.11 574.75 764.77 576.95 757.28 580.37 749.65 584.98 742.01 590.94 734.25 597.8 726.39 605.3 718.52 613.41 710.73 621.31 703.04 628.64 695.36 635.58 687.76 641.33 680.28 645.66 672.79 648.85 665.41 650.32 658.14 650.03 650.87 648.35 643.7 644.97 636.67 640.02 629.61 633.92 622.68 626.56 615.88 618.2 609.07 609.18 602.39 599.56 595.86 589.57 589.31 579.46 582.91 569.33 576.69 559.34 570.45 549.64 564.4 540.28 558.55 531.33 552.7 522.87 547.07 514.86 541.68 507.3 536.31 500.26 531.2 493.59 526.37 487.25 521.6 481.32 517.12 475.6 512.98 470.01 508.92 464.7 505.21 459.4 501.87 454.05 498.64 448.85 495.8 443.5 493.38 437.95 491.08 432.46 489.21 426.71 487.79 420.67 486.49 414.65 485.66 408.3 485.29 401.63 485.04 394.95 485.26 387.93 485.95 380.58 486.74 373.23 487.97 365.74 489.61 358.15 491.3 350.57 493.37 342.92 495.8 335.25 498.23 327.63 500.99 320.03 504.05 312.5 507.08 305.07 510.39 297.77 513.95 290.67 517.44 283.71 521.18 277.02 525.13 270.65 529 264.49 533.08 258.72 537.36 253.4 541.54 248.34 545.92 243.78 550.47 239.76 557.26 234.41 571.63 226.79 579.2 224.41 586.86 222.55 603.03 220.2 611.55 219.23 617.25 218.2 623.16 217.07 629.25 215.75 635.32 213.83 641.59 211.63 648.05 209.1 654.49 205.92 661.13 202.43 667.97 198.67 674.79 194.41 681.82 190.04 689.03 185.68 696.24 181.17 703.65 176.94 711.25 173.18" stroke-dasharray="4 1" transform="rotate(52.758620689655174, 711, 400)" opacity="0.67"></path><path d="M714.22 183.99C721.48 180.58 728.77 177.96 736.04 176.19 743.33 174.99 750.61 174.76 757.88 175.52 765.15 176.94 772.41 179.32 779.63 182.59 786.85 186.43 794.03 191.05 801.15 196.31 808.26 201.94 815.29 208.04 822.21 214.5 829.11 221.06 835.88 227.81 842.48 234.66 849.04 241.38 855.4 248.09 861.52 254.72 867.56 261.09 873.33 267.33 878.78 273.43 884.09 279.21 889.05 284.86 893.61 290.4 897.98 295.62 901.92 300.79 905.38 305.92 910 313.26 916.3 327.99 917.93 335.57 918.75 343.17 917.64 359.47 915.86 368.28 914.51 374.22 912.82 380.48 910.82 387.09 908.93 393.67 906.82 400.62 904.53 407.93 902.5 415.24 900.4 422.75 898.29 430.45 896.5 438.15 894.71 446.05 892.94 454.09 891.49 462.15 890.04 470.35 888.59 478.64 887.42 486.92 886.2 495.26 884.9 503.59 883.81 511.85 882.58 520.03 881.19 528.06 879.92 535.9 878.43 543.47 876.68 550.66 874.98 557.52 872.98 563.86 870.67 569.58 867 577.04 857.81 586.92 852.26 589.05 846.24 589.33 832.36 584.8 824.55 580.54 819.17 577.53 813.51 574.28 807.58 570.97 801.6 568.25 795.37 565.87 788.92 564.05 782.44 563.33 775.76 563.47 768.89 564.6 762.01 567.08 754.96 570.63 747.76 575.19 740.56 580.94 733.21 587.45 725.75 594.49 718.29 602.08 710.88 609.48 703.55 616.37 696.23 622.95 688.98 628.5 681.82 632.81 674.66 636.16 667.59 637.99 660.62 638.26 653.64 637.31 646.77 634.81 640 630.85 633.23 625.82 626.57 619.57 620.04 612.31 613.5 604.35 607.08 595.69 600.81 586.56 594.53 577.18 588.39 567.62 582.43 558.04 576.46 548.59 570.67 539.31 565.08 530.31 559.5 521.65 554.13 513.34 549 505.39 543.9 497.85 539.04 490.65 534.47 483.76 529.94 477.24 525.71 470.96 521.8 464.85 517.97 459.02 514.48 453.27 511.34 447.55 508.31 441.99 505.65 436.38 503.39 430.67 501.24 425.04 499.51 419.25 498.2 413.27 497.01 407.32 496.25 401.14 495.94 394.72 495.74 388.31 495.99 381.64 496.69 374.73 497.47 367.82 498.68 360.84 500.27 353.82 501.92 346.81 503.93 339.8 506.28 332.82 508.64 325.88 511.31 319.02 514.27 312.28 517.21 305.63 520.41 299.16 523.86 292.91 527.26 286.81 530.89 280.99 534.72 275.51 538.49 270.22 542.46 265.31 546.61 260.84 552.81 254.69 565.98 245.09 572.93 241.65 579.95 238.84 594.72 235.18 602.49 234 610.36 232.65 626.92 229.4 635.63 227.1 641.46 224.93 647.48 222.48 653.69 219.75 659.87 216.42 666.23 212.83 672.79 209.02 679.32 204.77 686.05 200.45 692.96 196.18 699.86 191.77 706.95 187.66 714.22 183.99" stroke-dasharray="7 9" transform="rotate(58.03448275862068, 711, 400)" opacity="0.64"></path><path d="M717.06 194.79C723.99 191.46 730.93 188.87 737.86 187.06 744.79 185.76 751.72 185.36 758.62 185.87 765.52 186.99 772.39 189.01 779.22 191.87 786.04 195.27 792.81 199.43 799.5 204.23 806.18 209.4 812.76 215.08 819.22 221.15 825.66 227.38 831.95 233.86 838.07 240.5 844.13 247.09 849.99 253.73 855.61 260.36 861.14 266.8 866.4 273.17 871.34 279.44 876.16 285.46 880.64 291.38 884.72 297.19 888.65 302.74 892.17 308.22 895.23 313.64 899.33 321.44 904.85 336.89 906.25 344.71 906.93 352.49 905.84 368.85 904.2 377.56 902.98 383.4 901.43 389.53 899.6 395.94 897.87 402.33 895.92 409.03 893.8 416.05 891.9 423.07 889.92 430.25 887.91 437.56 886.17 444.87 884.41 452.32 882.65 459.86 881.18 467.39 879.68 475 878.17 482.63 876.91 490.22 875.59 497.8 874.2 505.28 873 512.66 871.68 519.88 870.2 526.87 868.86 533.64 867.32 540.08 865.56 546.08 862.87 554.33 856.14 567.12 852.01 571.31 847.51 573.96 836.8 574.42 830.59 572.41 823.99 569.43 809.21 561.52 801.1 557.47 795.57 555.4 789.8 553.71 783.8 552.56 777.77 552.42 771.54 553.07 765.12 554.59 758.69 557.3 752.08 560.93 745.31 565.42 738.54 570.94 731.62 577.09 724.57 583.69 717.51 590.78 710.5 597.67 703.55 604.13 696.59 610.34 689.7 615.66 682.88 619.91 676.07 623.35 669.32 625.47 662.67 626.21 656.01 625.9 649.44 624.18 642.98 621.14 636.51 617.12 630.14 611.93 623.9 605.75 617.65 598.86 611.51 591.23 605.52 583.04 599.53 574.51 593.68 565.68 588 556.7 582.32 547.7 576.81 538.74 571.5 529.93 566.2 521.31 561.11 512.92 556.25 504.82 551.43 497 546.84 489.47 542.53 482.23 538.27 475.28 534.29 468.56 530.62 462.05 527.02 455.77 523.75 449.63 520.82 443.58 517.99 437.69 515.51 431.83 513.42 425.95 511.43 420.15 509.82 414.29 508.63 408.33 507.54 402.41 506.86 396.35 506.61 390.15 506.45 383.96 506.72 377.61 507.42 371.1 508.2 364.59 509.37 358.09 510.92 351.63 512.52 345.17 514.46 338.77 516.73 332.46 519.01 326.19 521.59 320.04 524.44 314.07 527.28 308.17 530.37 302.49 533.7 297.06 536.99 291.75 540.5 286.74 544.21 282.08 549.79 275.48 561.76 264.54 568.12 260.25 574.54 256.57 588.1 251.3 595.22 249.53 602.41 247.87 617.53 244.94 625.46 243.3 630.76 241.77 636.23 240.09 641.86 238.21 647.47 235.8 653.25 233.14 659.19 230.22 665.12 226.78 671.22 223.11 677.49 219.28 683.74 215.06 690.17 210.81 696.77 206.64 703.37 202.35 710.13 198.36 717.06 194.79" stroke-dasharray="1 6" transform="rotate(63.310344827586206, 711, 400)" opacity="0.61"></path><path d="M719.69 205.59C726.27 202.36 732.85 199.8 739.42 197.96 745.99 196.58 752.53 196.03 759.05 196.31 765.56 197.14 772.03 198.8 778.45 201.26 784.86 204.23 791.2 207.91 797.44 212.23 803.68 216.93 809.81 222.14 815.8 227.77 821.76 233.6 827.57 239.72 833.2 246.05 838.77 252.41 844.13 258.88 849.25 265.39 854.28 271.8 859.05 278.18 863.51 284.52 867.86 290.67 871.88 296.74 875.53 302.74 879.04 308.53 882.17 314.25 884.88 319.91 888.5 328.1 893.34 344.23 894.53 352.29 895.11 360.28 894.07 376.78 892.58 385.41 891.47 391.19 890.07 397.19 888.39 403.41 886.82 409.62 885.03 416.07 883.07 422.77 881.3 429.47 879.44 436.26 877.52 443.13 875.85 450 874.13 456.93 872.39 463.89 870.91 470.83 869.38 477.76 867.83 484.65 866.49 491.49 865.1 498.22 863.63 504.8 862.34 511.26 860.93 517.49 859.39 523.41 857.18 531.81 851.92 545.94 848.76 551.37 841.3 557.81 827.24 559.15 821.49 556.97 815.39 554.19 801.75 547.52 794.26 544.39 786.47 542.44 769.74 542.32 760.86 544.71 754.86 547.6 748.69 551.26 742.35 555.65 736.01 560.93 729.51 566.73 722.88 572.89 716.24 579.48 709.63 585.89 703.06 591.91 696.5 597.74 689.97 602.81 683.51 606.95 677.05 610.44 670.66 612.77 664.34 613.9 658.02 614.13 651.78 613.11 645.63 610.9 639.49 607.8 633.44 603.62 627.5 598.47 621.56 592.65 615.74 586.06 610.05 578.87 604.37 571.28 598.82 563.29 593.43 555.05 588.06 546.69 582.85 538.25 577.83 529.82 572.84 521.48 568.04 513.26 563.46 505.22 558.93 497.37 554.62 489.73 550.57 482.32 546.59 475.13 542.87 468.16 539.44 461.39 536.09 454.81 533.04 448.38 530.32 442.09 527.69 435.95 525.4 429.87 523.46 423.86 521.63 417.92 520.16 412 519.07 406.06 518.08 400.15 517.48 394.2 517.28 388.2 517.17 382.2 517.46 376.14 518.15 370 518.92 363.87 520.06 357.82 521.56 351.87 523.1 345.93 524.97 340.1 527.15 334.42 529.34 328.77 531.82 323.29 534.56 318.03 538.78 310.33 548.33 296.4 553.6 290.29 558.99 284.68 570.57 275.46 576.72 271.86 582.94 268.71 596.06 264.01 602.95 262.28 609.9 260.51 624.49 257.01 632.12 254.97 637.23 253.16 642.48 251.21 647.89 249.07 653.27 246.43 658.81 243.58 664.51 240.51 670.18 236.98 676.01 233.27 681.99 229.44 687.97 225.28 694.1 221.12 700.38 217.06 706.66 212.91 713.1 209.05 719.69 205.59" stroke-dasharray="10 1" transform="rotate(68.58620689655173, 711, 400)" opacity="0.57"></path><path d="M721.99 216.39C728.22 213.26 734.44 210.75 740.62 208.9 746.81 207.45 752.97 206.76 759.09 206.83 771.31 208.46 783.32 213.11 794.93 220.36 806.47 229.09 817.52 239.66 827.85 251.43 837.97 263.53 847.2 276.1 855.31 288.74 863.02 300.9 869.43 312.91 874.34 324.67 878.74 335.82 881.59 346.91 882.8 358.03 883.63 368.77 883 379.84 880.99 391.36 880 397.07 878.73 402.93 877.21 408.94 875.78 414.95 874.15 421.13 872.34 427.49 870.69 433.84 868.95 440.22 867.14 446.6 865.53 452.98 863.87 459.35 862.17 465.67 859.41 478.25 856.43 490.46 853.2 501.9 850.62 512.86 847.54 522.57 843.85 530.54 838.32 539.89 822.7 545.22 812.31 541.64 804.92 538.71 796.49 535.12 787.13 531.77 777.66 530.78 767.3 531.65 756.19 534.96 750.61 537.97 744.86 541.63 738.95 545.89 733.03 550.91 726.96 556.35 720.75 562.09 714.53 568.19 708.33 574.13 702.16 579.72 695.98 585.17 689.84 589.97 683.76 593.97 671.59 600.28 659.62 602.35 648 600.13 636.4 594.85 625.16 585.81 614.41 573.92 603.71 560.36 593.55 545.3 584.1 529.67 574.77 513.96 566.22 498.48 558.62 483.64 551.26 469.38 544.94 455.78 539.84 442.85 535.07 430.38 531.58 418.26 529.53 406.44 528.38 397.66 528.05 380.23 528.88 371.54 530.19 362.93 534.56 346.5 537.54 338.74 541.74 328.57 547.01 319.28 553.16 311.09 559.22 303.12 566.08 296.38 573.6 290.99 580.93 285.77 588.92 281.8 597.45 278.97 605.78 275.81 614.7 273.29 624.13 271.09 633.41 267.69 643.27 263.96 653.65 259.64 663.93 253.57 674.81 246.78 686.21 239.5 691.9 235.43 697.73 231.38 703.69 227.44 709.65 223.45 715.75 219.73 721.99 216.39" stroke-dasharray="3 7" transform="rotate(73.86206896551724, 711, 400)" opacity="0.54"></path><path d="M723.88 227.2C735.61 221.41 747.25 218.1 758.65 217.44 770.05 218.52 781.19 222.37 791.89 228.65 802.52 236.35 812.63 245.9 822 256.73 831.18 268.06 839.5 280.03 846.74 292.24 853.63 304.23 859.32 316.19 863.64 327.98 867.54 339.33 870.03 350.6 871.06 361.8 871.81 372.71 871.24 383.77 869.43 395.06 867.71 406.25 865.05 417.83 861.6 429.79 858.72 441.75 855.46 453.52 851.96 464.89 849.21 476.16 846.18 486.81 842.89 496.5 840.19 505.75 837.01 513.65 833.3 519.84 827.79 526.93 812.84 529.87 803.11 526.57 796.26 524.33 788.46 521.76 779.8 519.61 771.06 519.71 761.49 521.48 751.19 525.32 740.85 532.23 729.84 541.11 718.26 551.28 706.67 562.75 695.1 572.99 683.68 580.96 672.29 587.27 661.06 589.94 650.15 588.87 639.28 585.17 628.73 578.01 618.66 568.11 608.65 556.52 599.16 543.26 590.35 529.12 581.67 514.61 573.73 499.99 566.7 485.72 559.89 471.75 554.07 458.29 549.39 445.44 545.02 432.93 541.85 420.86 540.01 409.24 538.51 397.74 538.34 386.5 539.62 375.57 541.15 364.64 543.97 354.51 547.9 345.25 551.91 336.03 556.93 327.78 562.78 320.63 568.57 313.57 575.13 307.67 582.33 302.96 589.37 298.23 597.03 294.53 605.22 291.72 613.23 288.43 621.8 285.56 630.84 282.85 639.75 278.95 649.18 274.69 659.09 269.91 668.91 263.59 679.25 256.69 690.07 249.47 700.85 241.37 712.14 233.72 723.88 227.2" stroke-dasharray="6 11" transform="rotate(79.13793103448276, 711, 400)" opacity="0.51"></path><path d="M725.29 238C736.28 232.43 747.12 229.09 757.69 228.15 768.26 228.71 778.51 231.8 788.31 237.14 798.04 243.81 807.22 252.27 815.68 262.06 823.96 272.46 831.41 283.64 837.84 295.2 843.98 306.75 849.01 318.4 852.8 329.97 856.25 341.27 858.45 352.49 859.34 363.6 860.01 374.49 859.53 385.42 857.91 396.38 856.4 407.27 854.02 418.33 850.87 429.48 848.21 440.64 845.14 451.35 841.79 461.45 839.06 471.44 836.03 480.62 832.72 488.72 828.31 499.64 817.48 512.95 810.62 514.82 805.9 515.13 800.35 514.05 794 511.94 787.63 510.48 780.4 508.96 772.39 507.96 764.33 509.02 755.49 511.54 745.98 515.8 736.43 522.64 726.24 531.06 715.49 540.48 704.75 551.01 693.99 560.44 683.37 567.94 672.76 574.15 662.31 577.26 652.14 577.14 642.02 574.81 632.2 569.37 622.83 561.35 613.54 551.73 604.75 540.34 596.59 527.87 588.57 514.83 581.26 501.41 574.8 488.05 568.55 474.77 563.23 461.8 558.98 449.34 555 437.1 552.14 425.3 550.52 414.02 549.19 402.84 549.1 392.05 550.35 381.75 551.83 371.44 554.51 362.05 558.23 353.62 562.03 345.19 566.78 337.76 572.33 331.38 577.83 325 584.07 319.66 590.91 315.35 597.64 310.88 604.95 307.23 612.76 304.25 620.43 300.69 628.62 297.39 637.24 294.14 645.75 289.77 654.74 285.04 664.15 279.86 673.49 273.37 683.29 266.44 693.5 259.34 703.68 251.54 714.3 244.23 725.29 238" stroke-dasharray="4 4" transform="rotate(84.41379310344827, 711, 400)" opacity="0.48"></path><path d="M726.17 248.8C736.4 243.47 746.43 240.14 756.16 238.95 765.88 239.06 775.27 241.44 784.17 245.87 793.01 251.51 801.3 258.87 808.88 267.54 816.31 276.89 822.94 287.11 828.63 297.83 834.09 308.69 838.53 319.78 841.84 330.87 844.9 341.85 846.84 352.79 847.62 363.59 848.25 374.26 847.85 384.87 846.43 395.37 845.11 405.84 842.99 416.27 840.14 426.58 837.7 436.89 834.82 446.56 831.63 455.45 828.96 464.25 825.97 472.11 822.68 478.85 818.2 487.87 807.41 498.32 800.77 499.63 796.24 499.96 790.99 499.26 785.04 497.87 779.09 497.26 772.38 496.75 764.98 496.8 757.55 498.69 749.41 501.83 740.65 506.38 731.86 513.07 722.47 521 712.57 529.68 702.66 539.29 692.72 547.93 682.91 554.92 673.11 560.93 663.44 564.33 654.04 564.97 644.69 563.81 635.63 559.89 626.99 553.61 618.44 545.87 610.35 536.36 602.87 525.65 595.53 514.26 588.84 502.27 582.96 490.1 577.28 477.84 572.45 465.7 568.61 453.92 565.02 442.24 562.46 430.95 561.04 420.18 559.88 409.48 559.87 399.22 561.08 389.52 562.51 379.82 565.04 371.09 568.54 363.33 572.12 355.55 576.59 348.74 581.8 342.89 587 336.98 592.89 331.97 599.36 327.81 605.74 323.4 612.68 319.62 620.08 316.34 627.38 312.44 635.15 308.68 643.33 304.89 651.41 300.09 659.93 294.96 668.81 289.48 677.64 282.91 686.88 276.03 696.46 269.11 706.02 261.66 715.95 254.72 726.17 248.8" stroke-dasharray="2 6" transform="rotate(89.68965517241378, 711, 400)" opacity="0.44"></path><path d="M726.49 259.61C735.94 254.53 745.16 251.25 754.05 249.86 762.93 249.56 771.45 251.29 779.48 254.85 787.46 259.5 794.89 265.75 801.64 273.28 808.27 281.49 814.15 290.62 819.16 300.33 823.99 310.3 827.9 320.59 830.8 330.98 833.51 341.38 835.24 351.78 835.93 362.05 836.54 372.27 836.21 382.39 834.98 392.29 833.85 402.18 831.97 411.91 829.4 421.35 827.18 430.79 824.5 439.46 821.49 447.25 818.91 454.97 815.99 461.71 812.75 467.33 808.27 474.88 797.62 483.47 791.19 484.68 784.36 485.17 767.63 484.95 757.69 486.15 750.84 488.73 743.36 492.33 735.32 497.06 727.27 503.53 718.66 510.94 709.58 518.87 700.5 527.6 691.39 535.45 682.38 541.9 673.4 547.63 664.54 551.18 655.93 552.41 647.36 552.2 639.07 549.59 631.19 544.87 623.38 538.87 616.02 531.18 609.22 522.23 602.55 512.59 596.5 502.17 591.19 491.4 586.06 480.42 581.73 469.37 578.3 458.51 575.09 447.67 572.82 437.12 571.59 427.01 570.59 416.94 570.64 407.3 571.81 398.22 573.17 389.13 575.55 380.98 578.82 373.77 582.17 366.51 586.34 360.14 591.21 354.62 596.08 348.99 601.6 344.12 607.67 339.94 613.67 335.45 620.21 331.44 627.17 327.77 634.06 323.5 641.38 319.29 649.08 315.02 656.7 309.87 664.71 304.45 673.05 298.77 681.34 292.21 689.99 285.47 698.92 278.8 707.83 271.73 717.05 265.19 726.49 259.61" stroke-dasharray="1 11" transform="rotate(94.96551724137932, 711, 400)" opacity="0.41"></path><path d="M726.24 270.41C734.89 265.62 743.29 262.42 751.35 260.87 759.39 260.23 767.06 261.36 774.26 264.14 781.4 267.84 788.02 273.01 794 279.39 799.87 286.42 805.06 294.37 809.46 302.95 813.71 311.86 817.15 321.17 819.7 330.66 822.11 340.24 823.65 349.88 824.28 359.42 824.86 368.97 824.62 378.39 823.57 387.57 822.61 396.75 820.97 405.69 818.67 414.24 816.66 422.8 814.19 430.52 811.37 437.35 807.49 447.04 798.52 461.2 793.35 465.53 788.09 468.79 775.4 471.45 767.82 471.91 762.63 472.95 756.88 474.23 750.59 475.99 744.29 479.11 737.45 483.04 730.11 487.82 722.76 494 714.91 500.87 706.65 508.07 698.38 515.93 690.09 523.01 681.91 528.89 673.74 534.28 665.69 537.85 657.88 539.49 650.11 540.02 642.6 538.51 635.48 535.14 628.42 530.7 621.78 524.69 615.67 517.45 609.68 509.54 604.25 500.77 599.52 491.51 594.93 481.97 591.07 472.2 588.05 462.46 585.2 452.67 583.21 443.04 582.17 433.74 581.32 424.45 581.42 415.52 582.55 407.07 583.83 398.62 586.05 391.01 589.07 384.23 592.18 377.41 596.04 371.35 600.56 366.03 605.08 360.56 610.21 355.7 615.85 351.37 621.45 346.73 627.54 342.43 634.04 338.37 640.48 333.75 647.32 329.16 654.5 324.49 661.63 319.09 669.1 313.49 676.86 307.73 684.58 301.28 692.6 294.76 700.85 288.39 709.1 281.75 717.59 275.63 726.24 270.41" stroke-dasharray="6 10" transform="rotate(100.24137931034483, 711, 400)" opacity="0.38"></path><path d="M725.42 281.21C733.27 276.73 740.85 273.64 748.09 271.99 755.31 271.07 762.16 271.69 768.55 273.73 774.89 276.56 780.74 280.71 786 285.96 791.18 291.81 795.73 298.55 799.57 305.94 803.31 313.67 806.33 321.86 808.56 330.28 810.7 338.86 812.08 347.55 812.67 356.18 813.24 364.87 813.08 373.46 812.19 381.79 811.39 390.14 809.97 398.23 807.94 405.9 806.13 413.57 803.88 420.42 801.26 426.43 797.59 434.95 788.95 447.42 783.95 451.42 778.86 454.7 766.78 458.65 759.69 460.21 754.86 461.96 749.55 463.94 743.78 466.32 738.01 469.81 731.78 473.93 725.11 478.65 718.44 484.48 711.34 490.78 703.87 497.27 696.4 504.29 688.93 510.61 681.56 515.92 674.21 520.89 666.98 524.38 659.97 526.28 653 527.35 646.27 526.71 639.91 524.47 633.6 521.38 627.69 516.87 622.26 511.21 616.93 504.94 612.12 497.8 607.94 490.07 603.89 482.04 600.5 473.66 597.86 465.16 595.37 456.57 593.65 448 592.78 439.62 592.07 431.23 592.21 423.08 593.28 415.3 594.48 407.51 596.53 400.42 599.3 394.03 602.16 387.59 605.7 381.78 609.84 376.55 613.99 371.17 618.71 366.26 623.9 361.75 629.07 356.94 634.69 352.37 640.68 347.97 646.64 343.08 652.97 338.19 659.6 333.26 666.19 327.73 673.09 322.08 680.23 316.36 687.35 310.12 694.72 303.9 702.28 297.9 709.82 291.72 717.56 286.06 725.42 281.21" stroke-dasharray="7 3" transform="rotate(105.51724137931035, 711, 400)" opacity="0.34"></path><path d="M724.06 292.01C731.1 287.87 737.87 284.93 744.3 283.21 753.75 282.17 770.55 287.31 777.7 293.1 782.23 297.81 786.2 303.34 789.55 309.51 792.82 316.02 795.46 323 797.42 330.26 799.32 337.7 800.56 345.3 801.12 352.91 801.67 360.59 801.58 368.2 800.85 375.6 800.21 383.04 798.99 390.22 797.2 397.02 794.58 406.86 787.74 422.76 783.65 428.8 779.54 434.11 769.91 441.55 764.32 444.11 758.51 446.89 745.02 453.01 737.33 457.11 732.08 460.82 726.43 464.99 720.42 469.56 714.42 474.97 708.04 480.69 701.36 486.47 694.68 492.67 688.02 498.25 681.46 502.97 674.91 507.49 668.49 510.8 662.27 512.81 653.12 514.24 636.37 509.34 629.01 503.46 624.33 498.7 620.13 493.08 616.49 486.82 612.96 480.29 610.01 473.32 607.74 466.11 605.59 458.79 604.12 451.36 603.41 443.97 602.83 436.57 603.01 429.27 604.01 422.19 605.13 415.1 606.99 408.54 609.51 402.52 612.1 396.46 615.32 390.86 619.06 385.71 622.84 380.42 627.13 375.47 631.84 370.8 636.55 365.88 641.67 361.12 647.13 356.46 652.58 351.42 658.36 346.38 664.39 341.31 670.42 335.8 676.71 330.23 683.2 324.67 689.68 318.73 696.38 312.9 703.21 307.33 710.04 301.65 717.01 296.46 724.06 292.01" stroke-dasharray="5 3" transform="rotate(110.79310344827586, 711, 400)" opacity="0.31"></path><path d="M722.22 302.82C734.68 295.6 746.07 292.7 755.88 293.96 765.59 297.19 773.59 304.22 779.43 313.89 785.08 324.73 788.56 337.24 789.63 350.15 790.72 363.39 789.69 376.49 786.47 388.41 783.82 400.32 779.55 409.79 774.15 416.78 769.37 423.91 763.26 429.09 756.04 432.81 749.13 437.82 740.82 442.8 731.3 448.34 721.84 456.54 711.03 465.96 699.21 475.66 687.4 486.68 675.74 494.83 664.86 499.15 654.08 501.9 644.24 500.05 635.95 494.26 627.94 486.94 621.66 476.73 617.7 464.94 614.14 452.75 613 439.83 614.75 427.13 616.87 414.42 621.58 403.08 628.24 393.12 635.01 382.72 643.6 372.99 653.4 363.78 663.18 353.41 674.16 342.91 685.79 332.67 697.42 321.43 709.74 311.02 722.22 302.82" stroke-dasharray="0 3" transform="rotate(116.06896551724137, 711, 400)" opacity="0.28"></path><path d="M719.96 313.62C730.81 307.09 740.64 304.14 749.07 304.62 757.41 306.57 764.27 311.73 769.27 319.24 774.15 327.71 777.21 337.79 778.2 348.47 779.25 359.45 778.47 370.52 775.74 380.81 773.43 391.1 769.62 399.55 764.74 406.15 760.31 412.95 754.68 418.4 748.09 422.88 741.75 428.44 734.22 434.04 725.74 439.97 717.31 447.84 707.8 456.4 697.5 464.86 687.2 474.31 677.13 481.36 667.79 485.34 658.54 488.34 650.13 487.65 643.12 483.68 636.31 478.61 631.02 470.89 627.74 461.46 624.76 451.68 623.88 440.84 625.48 429.69 627.38 418.53 631.52 408.09 637.37 398.52 643.33 388.63 650.89 379.08 659.51 369.92 668.15 359.95 677.83 349.95 688.06 340.39 698.3 330.22 709.1 320.92 719.96 313.62" stroke-dasharray="2 3" transform="rotate(121.3448275862069, 711, 400)" opacity="0.25"></path><path d="M717.37 324.42C726.61 318.64 734.94 315.76 742.05 315.65 749.1 316.58 754.88 320.13 759.11 325.7 763.28 331.99 765.93 339.79 766.85 348.31 767.85 357.08 767.27 366.16 765.01 374.9 763.04 383.63 759.72 391.13 755.4 397.37 751.42 403.81 746.36 409.42 740.47 414.38 734.78 420.18 728.11 426.03 720.69 431.97 713.31 439.25 705.09 446.84 696.29 454.06 687.49 462 678.96 467.94 671.12 471.45 663.33 474.4 656.32 474.48 650.52 471.89 644.86 468.58 640.51 462.95 637.86 455.63 635.44 448.04 634.77 439.2 636.21 429.64 637.87 420.08 641.44 410.71 646.46 401.79 651.58 392.66 658.08 383.64 665.49 374.9 672.93 365.67 681.27 356.49 690.06 347.86 698.86 338.9 708.11 330.79 717.37 324.42" stroke-dasharray="1 0" transform="rotate(126.62068965517241, 711, 400)" opacity="0.21"></path><path d="M714.54 335.23C725.63 328.9 743.11 328.34 749 333.38 752.49 337.78 754.74 343.52 755.59 350.05 756.49 356.75 756.1 363.95 754.27 371.18 752.65 378.41 749.83 384.97 746.14 390.76 742.67 396.71 738.27 402.22 733.17 407.31 728.21 412.99 722.47 418.69 716.15 424.3 709.87 430.77 702.94 437.27 695.62 443.25 688.3 449.73 681.28 454.57 674.88 457.52 665.68 460.44 651.88 455.08 648.08 447.6 646.16 441.91 645.69 434.93 646.94 427 648.36 419.06 651.34 410.95 655.52 402.98 659.78 394.89 665.19 386.75 671.37 378.84 677.58 370.66 684.54 362.59 691.85 355.1 699.19 347.47 706.88 340.62 714.54 335.23" stroke-dasharray="6 6" transform="rotate(131.89655172413794, 711, 400)" opacity="0.18"></path><path d="M711.58 346.03C723.74 338.19 733.35 337.43 738.99 342.29 744.62 348.31 746.48 358.45 743.54 370 741.11 381.54 734.7 392.33 726.18 401.61 717.99 412.31 707.24 423.37 695.53 432.45 683.81 442.77 673.35 447.26 666.11 445.52 659.12 442.97 655.7 434.58 657.68 421.98 660.07 409.38 667.38 395.19 677.19 381.87 687.13 368.1 699.41 354.93 711.58 346.03" stroke-dasharray="6 11" transform="rotate(137.17241379310346, 711, 400)" opacity="0.15"></path><path d="M708.6 356.83C721.24 350.1 734.16 359.35 732.81 371.45 730.98 380.12 726.03 389.07 719.45 397.15 713.06 405.96 704.8 414.79 696.01 421.65 683.37 430.86 668.04 427.24 668.41 415.04 670.22 405.69 675.67 394.65 682.98 384.18 690.38 373.61 699.53 363.59 708.6 356.83" stroke-dasharray="8 9" transform="rotate(142.44827586206895, 711, 400)" opacity="0.12"></path><path d="M705.7 367.63C717.7 359.49 724.88 363.74 722.07 375.4 719.76 387.05 708.79 402.08 697.04 410.85 685.28 420.81 677.06 419.06 679.14 406.77 681.68 394.48 693.69 376.9 705.7 367.63" stroke-dasharray="2 4" transform="rotate(147.72413793103448, 711, 400)" opacity="0.08"></path></g></svg>